<?xml version="1.0" standalone="no"?>
<!DOCTYPE svg PUBLIC "-//W3C//DTD SVG 20010904//EN"
 "http://www.w3.org/TR/2001/REC-SVG-20010904/DTD/svg10.dtd">
<svg version="1.0" xmlns="http://www.w3.org/2000/svg"
 width="1280.000000pt" height="1280.000000pt" viewBox="0 0 1280.000000 1280.000000"
 preserveAspectRatio="xMidYMid meet">
<g transform="translate(0.000000,1280.000000) scale(0.100000,-0.100000)"
fill="#000000" stroke="none">
<path d="M6412 11664 c-93 -46 -155 -141 -234 -358 -22 -61 -42 -113 -44 -115
-1 -2 -28 48 -60 110 -96 193 -159 276 -241 317 -127 65 -267 12 -336 -125
-35 -69 -54 -132 -81 -272 -14 -68 -27 -125 -30 -128 -2 -2 -37 42 -77 99
-167 237 -289 316 -429 278 -68 -18 -141 -96 -168 -180 -24 -72 -42 -213 -42
-332 0 -43 -3 -78 -6 -78 -4 0 -61 53 -128 118 -146 141 -215 183 -315 189
-58 4 -72 2 -121 -24 -129 -67 -163 -203 -125 -493 8 -62 13 -115 11 -118 -5
-5 -35 16 -141 96 -107 81 -223 135 -300 140 -78 5 -126 -10 -178 -57 -101
-91 -109 -222 -31 -488 19 -64 32 -118 30 -120 -2 -2 -71 30 -154 70 -162 80
-240 102 -326 95 -73 -6 -141 -48 -179 -110 -62 -99 -45 -224 59 -448 31 -67
54 -124 51 -126 -3 -3 -70 16 -149 41 -237 78 -367 73 -458 -17 -28 -28 -45
-57 -56 -96 -32 -108 0 -205 130 -403 58 -88 81 -129 70 -129 -9 0 -71 9 -137
21 -172 30 -302 24 -377 -17 -90 -49 -139 -140 -126 -234 13 -97 73 -191 219
-346 43 -45 77 -84 77 -88 0 -3 -75 -5 -167 -5 -176 0 -244 -11 -321 -50 -119
-61 -162 -206 -99 -329 33 -64 124 -157 232 -239 115 -86 117 -90 58 -98 -333
-47 -440 -91 -497 -206 -78 -157 24 -317 284 -449 25 -13 63 -34 84 -47 48
-31 47 -31 -104 -79 -204 -64 -298 -123 -344 -216 -35 -70 -35 -137 0 -206 46
-93 138 -153 355 -233 63 -23 116 -43 118 -45 2 -1 -48 -28 -110 -60 -193 -96
-276 -159 -317 -241 -65 -127 -12 -267 125 -336 69 -35 132 -54 272 -81 68
-14 125 -27 128 -30 2 -2 -42 -37 -99 -77 -237 -167 -316 -289 -278 -429 18
-67 97 -141 181 -169 71 -23 212 -41 332 -41 42 0 77 -3 77 -6 0 -4 -53 -61
-117 -128 -142 -146 -184 -215 -190 -315 -4 -58 -2 -72 24 -121 67 -129 203
-163 493 -125 62 8 115 13 118 11 5 -5 -16 -35 -96 -141 -81 -107 -135 -223
-140 -300 -5 -78 10 -126 57 -178 91 -101 222 -109 488 -31 64 19 118 32 120
30 2 -2 -30 -72 -71 -156 -41 -84 -80 -178 -87 -208 -37 -180 51 -316 213
-329 84 -7 180 20 338 93 67 31 124 54 126 51 3 -3 -16 -70 -41 -149 -78 -237
-73 -367 17 -458 28 -28 57 -45 96 -56 107 -32 204 0 405 132 86 57 127 79
127 68 0 -9 -9 -71 -21 -137 -30 -172 -24 -302 17 -377 49 -90 140 -139 234
-126 97 13 191 73 346 219 45 43 84 77 87 77 4 0 6 -71 5 -158 -1 -215 21
-311 91 -385 71 -77 190 -95 289 -44 64 33 157 124 239 232 86 115 90 117 98
58 47 -333 91 -440 206 -497 157 -78 317 24 449 284 13 25 34 63 47 84 31 48
31 47 79 -104 64 -204 123 -298 216 -344 70 -35 137 -35 206 0 93 46 155 141
234 358 22 61 42 113 44 115 1 2 28 -48 60 -110 96 -193 159 -276 241 -317
127 -65 267 -12 336 125 35 69 54 132 81 272 14 68 27 125 30 128 2 2 37 -42
77 -99 167 -237 289 -316 429 -278 68 18 141 96 168 180 24 72 42 213 42 333
0 42 3 77 6 77 4 0 61 -53 128 -117 146 -142 215 -184 315 -190 58 -4 72 -2
121 24 129 67 163 203 125 493 -8 62 -13 115 -11 118 5 5 35 -16 141 -96 107
-81 223 -135 300 -140 78 -5 126 10 178 57 102 91 110 220 31 489 -19 64 -32
117 -30 119 2 2 72 -30 156 -71 84 -41 178 -80 208 -87 180 -37 316 51 329
213 7 84 -20 180 -93 338 -31 67 -54 124 -51 126 3 3 70 -16 149 -41 237 -78
367 -73 458 17 28 28 45 57 56 96 32 108 0 205 -130 403 -58 88 -81 129 -70
129 9 0 71 -9 137 -21 172 -30 302 -24 377 17 90 49 139 140 126 234 -13 97
-73 191 -219 346 -43 45 -77 84 -77 87 0 4 75 6 168 6 175 0 243 10 320 50
119 61 162 206 99 329 -33 64 -124 157 -232 239 -115 86 -117 90 -58 98 333
47 440 91 497 206 78 157 -24 317 -284 449 -25 13 -63 34 -84 47 -48 31 -47
31 104 79 204 64 298 123 344 216 35 70 35 137 0 206 -46 93 -138 153 -355
233 -63 23 -116 43 -118 45 -2 1 48 28 110 60 193 96 276 159 317 241 65 127
12 267 -125 336 -69 35 -132 54 -272 81 -68 14 -125 27 -128 30 -2 2 42 37 99
77 243 172 321 296 274 437 -23 69 -94 133 -179 161 -69 23 -211 41 -329 41
-43 0 -78 3 -78 6 0 4 53 61 118 128 141 146 183 215 189 315 4 58 2 72 -24
121 -67 129 -203 163 -493 125 -62 -8 -115 -13 -118 -11 -5 5 16 35 96 141 81
107 135 223 140 300 5 78 -10 126 -57 178 -91 101 -222 109 -488 31 -64 -19
-118 -32 -120 -30 -2 2 30 72 71 156 41 84 80 178 87 208 37 180 -51 316 -213
329 -84 7 -180 -20 -338 -93 -67 -31 -124 -54 -126 -51 -3 3 16 70 41 149 78
237 73 367 -17 458 -28 28 -57 45 -96 56 -107 32 -204 0 -404 -132 -95 -62
-128 -79 -128 -66 0 9 9 68 20 131 20 113 25 233 14 304 -11 61 -63 138 -117
171 -41 25 -59 30 -115 30 -112 1 -201 -50 -378 -217 -45 -43 -85 -77 -89 -77
-4 0 -5 46 -3 103 18 341 -70 511 -262 511 -51 0 -76 -6 -118 -27 -64 -33
-157 -124 -239 -232 -86 -115 -90 -117 -98 -58 -47 333 -91 440 -206 497 -157
78 -317 -24 -449 -284 -13 -25 -34 -63 -47 -84 -31 -48 -31 -47 -79 104 -64
204 -123 298 -216 344 -70 35 -137 35 -206 0z m243 -1414 c576 -36 910 -107
1039 -221 88 -76 88 -174 0 -387 -50 -122 -150 -305 -386 -703 -538 -905 -749
-1210 -881 -1270 -85 -39 -265 180 -652 791 -139 219 -504 849 -590 1015 -121
236 -165 390 -136 478 51 153 425 253 1101 296 185 12 327 12 505 1z m-2619
-915 c46 -19 142 -112 211 -203 83 -110 179 -270 408 -677 496 -882 689 -1290
661 -1399 -23 -91 -277 -134 -969 -166 -298 -13 -1155 -13 -1310 1 -202 17
-332 55 -384 111 -33 35 -43 72 -43 158 0 198 104 491 346 970 232 461 616
985 840 1146 105 75 166 90 240 59z m4891 -15 c177 -89 420 -374 733 -860 106
-165 275 -491 372 -720 148 -350 198 -593 144 -698 -32 -61 -88 -94 -208 -122
-180 -41 -474 -48 -1283 -30 -747 17 -1021 42 -1145 104 l-45 23 1 74 c2 55
10 97 34 164 77 214 323 698 611 1201 309 541 383 656 502 781 112 118 177
137 284 83z m-2396 -2595 c86 -31 158 -96 207 -189 24 -46 27 -61 27 -156 0
-94 -3 -111 -28 -161 -34 -70 -109 -142 -185 -177 -49 -23 -70 -27 -147 -27
-76 0 -99 5 -147 27 -79 37 -142 98 -181 177 -29 60 -32 74 -32 161 0 85 3
101 29 154 84 172 280 253 457 191z m-2416 -815 c741 -17 1020 -42 1145 -104
43 -21 45 -25 48 -69 8 -118 -83 -340 -343 -837 -123 -236 -406 -738 -556
-986 -189 -313 -332 -464 -441 -464 -50 0 -144 50 -230 124 -222 189 -584 698
-798 1121 -277 549 -389 923 -316 1063 44 84 170 131 401 151 143 12 591 12
1090 1z m5648 -1 c202 -17 332 -55 384 -111 33 -35 43 -72 43 -158 0 -198
-104 -491 -346 -970 -249 -496 -663 -1045 -887 -1179 -65 -38 -128 -49 -182
-31 -20 7 -65 39 -101 72 -127 119 -216 256 -529 813 -496 882 -689 1290 -661
1399 22 89 282 135 931 165 272 12 1208 13 1348 0z m-3312 -797 c138 -88 439
-527 882 -1287 317 -543 411 -738 424 -881 10 -113 -27 -167 -161 -230 -177
-84 -499 -137 -998 -165 -390 -22 -956 27 -1239 106 -226 64 -319 139 -319
258 0 148 92 341 452 948 491 826 721 1166 844 1248 26 17 53 31 59 31 6 0 31
-13 56 -28z"/>
</g>
</svg>
