<?xml version="1.0" encoding="utf-8"?>
<!-- Generator: Adobe Illustrator 19.0.0, SVG Export Plug-In . SVG Version: 6.00 Build 0)  -->
<svg version="1.1" id="Layer_1" xmlns="http://www.w3.org/2000/svg" xmlns:xlink="http://www.w3.org/1999/xlink" x="0px" y="0px"
	 viewBox="0 0 96 96" style="enable-background:new 0 0 96 96;" xml:space="preserve">
<style type="text/css">
	.st0{fill:#333333;}
</style>
<g id="XMLID_2_">
	<path id="XMLID_6_" class="st0" d="M44.9,15.5c-0.9,0-1.5,0.7-1.5,1.5v3.7c-1.7,0.3-3.4,0.7-5,1.3l-1.8-3.1c-0.4-0.7-1.4-1-2.1-0.6
		l-5.3,3.1c-0.7,0.4-1,1.4-0.6,2.1l1.8,3.1c-1.3,1.1-2.6,2.3-3.7,3.6l-3.1-1.8c-0.7-0.4-1.7-0.2-2.1,0.6l-3.1,5.3
		c-0.4,0.7-0.2,1.7,0.6,2.1l3.1,1.8c-0.6,1.6-1,3.3-1.3,5H17c-0.9,0-1.5,0.7-1.5,1.5v6.2c0,0.9,0.7,1.5,1.5,1.5h3.7
		c0.3,1.7,0.7,3.4,1.3,5l-3.1,1.8c-0.7,0.4-1,1.4-0.6,2.1l3.1,5.3c0.4,0.7,1.4,1,2.1,0.6l3.1-1.8c1.1,1.3,2.3,2.6,3.7,3.7l-1.8,3.1
		c-0.4,0.7-0.2,1.7,0.6,2.1l5.3,3.1c0.7,0.4,1.7,0.2,2.1-0.6l1.8-3.1c1.6,0.6,3.3,1,5,1.3V79c0,0.9,0.7,1.5,1.5,1.5h6.2
		c0.9,0,1.5-0.7,1.5-1.5v-3.7c1.7-0.3,3.4-0.7,5-1.3l1.8,3.1c0.4,0.7,1.4,1,2.1,0.6l5.3-3.1c0.7-0.4,1-1.4,0.6-2.1l-1.8-3.1
		c1.3-1.1,2.6-2.3,3.7-3.7l3.1,1.8c0.7,0.4,1.7,0.2,2.1-0.6l3.1-5.3c0.4-0.7,0.2-1.7-0.6-2.1L74,57.6c0.6-1.6,1-3.3,1.3-5H79
		c0.9,0,1.5-0.7,1.5-1.5v-6.2c0-0.9-0.7-1.5-1.5-1.5h-3.7c-0.3-1.7-0.7-3.4-1.3-5l3.1-1.8c0.7-0.4,1-1.4,0.6-2.1l-3.1-5.3
		c-0.4-0.7-1.4-1-2.1-0.6l-3.1,1.8c-1.1-1.3-2.3-2.5-3.7-3.6l1.8-3.1c0.4-0.7,0.2-1.7-0.6-2.1l-5.3-3.1c-0.7-0.4-1.7-0.2-2.1,0.6
		L57.6,22c-1.6-0.6-3.3-1-5-1.3V17c0-0.9-0.7-1.5-1.5-1.5H44.9z M47.9,37.2c6,0,10.8,4.8,10.8,10.8c0,6-4.8,10.8-10.8,10.8
		C41.9,58.8,37,54,37,48C37,42,41.9,37.2,47.9,37.2z"/>
</g>
</svg>
